<svg width="558" height="558" viewBox="0 0 558 558" fill="none" xmlns="http://www.w3.org/2000/svg">
<g filter="url(#filter0_g_148_132)">
<path d="M450.875 325.875C476.719 325.875 497.75 304.844 497.75 279C497.75 253.156 476.719 232.125 450.875 232.125C441.212 232.154 431.795 235.173 423.916 240.768C416.038 246.364 410.085 254.261 406.875 263.375H316.719L430.781 149.312C436.906 152.234 443.656 154 450.875 154C476.719 154 497.75 132.969 497.75 107.125C497.75 81.2812 476.719 60.25 450.875 60.25C425.031 60.25 404 81.2812 404 107.125C404 114.344 405.781 121.094 408.687 127.203L279 256.906V154C279 136.781 293.016 122.75 310.25 122.75H341.5V91.5H310.25C291.5 91.5 274.844 99.9844 263.375 113.094C257.563 106.349 250.37 100.93 242.283 97.2046C234.196 93.4792 225.404 91.5338 216.5 91.5H200.875C123.344 91.5 60.25 154.578 60.25 232.125V325.875C60.25 403.422 123.344 466.5 200.875 466.5H216.5C235.25 466.5 251.906 458.031 263.375 444.906C274.844 458.031 291.5 466.5 310.25 466.5H341.5V435.25H310.25C293.016 435.25 279 421.234 279 404V301.094L408.687 430.797C405.766 436.906 404 443.656 404 450.875C404 476.734 425.031 497.75 450.875 497.75C476.719 497.75 497.75 476.734 497.75 450.875C497.75 425.016 476.719 404 450.875 404C443.914 404.037 437.05 405.644 430.797 408.703L316.719 294.641H406.875C410.088 303.752 416.042 311.646 423.92 317.238C431.798 322.83 441.214 325.847 450.875 325.875ZM450.875 263.375C455.019 263.375 458.993 265.021 461.924 267.951C464.854 270.882 466.5 274.856 466.5 279C466.5 283.144 464.854 287.118 461.924 290.049C458.993 292.979 455.019 294.625 450.875 294.625C446.731 294.625 442.757 292.979 439.826 290.049C436.896 287.118 435.25 283.144 435.25 279C435.25 274.856 436.896 270.882 439.826 267.951C442.757 265.021 446.731 263.375 450.875 263.375ZM450.875 91.5C454.898 91.68 458.697 93.4048 461.48 96.3153C464.263 99.2259 465.817 103.098 465.817 107.125C465.817 111.152 464.263 115.024 461.48 117.935C458.697 120.845 454.898 122.57 450.875 122.75C446.731 122.75 442.757 121.104 439.826 118.174C436.896 115.243 435.25 111.269 435.25 107.125C435.25 102.981 436.896 99.0067 439.826 96.0765C442.757 93.1462 446.731 91.5 450.875 91.5ZM247.75 216.5H216.5V247.75H247.75V310.25H216.5C190.656 310.25 169.625 331.281 169.625 357.125V388.375H200.875V357.125C200.875 352.981 202.521 349.007 205.451 346.076C208.382 343.146 212.356 341.5 216.5 341.5H247.75V404C247.75 421.234 233.734 435.25 216.5 435.25H200.875C145.875 435.25 100.375 394.422 92.75 341.5H122.75V310.25H91.5V247.75H138.375C164.219 247.75 185.25 226.719 185.25 200.875V169.625H154V200.875C154 205.019 152.354 208.993 149.424 211.924C146.493 214.854 142.519 216.5 138.375 216.5H92.75C100.375 163.578 145.875 122.75 200.875 122.75H216.5C233.734 122.75 247.75 136.781 247.75 154V216.5ZM466.5 450.875C466.32 454.898 464.595 458.697 461.685 461.48C458.774 464.263 454.902 465.817 450.875 465.817C446.848 465.817 442.976 464.263 440.065 461.48C437.155 458.697 435.43 454.898 435.25 450.875C435.25 442.266 442.266 435.25 450.875 435.25C459.484 435.25 466.5 442.266 466.5 450.875Z" fill="white"/>
</g>
<defs>
<filter id="filter0_g_148_132" x="-31" y="-31" width="620" height="620" filterUnits="userSpaceOnUse" color-interpolation-filters="sRGB">
<feFlood flood-opacity="0" result="BackgroundImageFix"/>
<feBlend mode="normal" in="SourceGraphic" in2="BackgroundImageFix" result="shape"/>
<feTurbulence type="fractalNoise" baseFrequency="0.25 0.25" numOctaves="3" seed="8829" />
<feDisplacementMap in="shape" scale="120" xChannelSelector="R" yChannelSelector="G" result="displacedImage" width="100%" height="100%" />
<feMerge result="effect1_texture_148_132">
<feMergeNode in="displacedImage"/>
</feMerge>
</filter>
</defs>
</svg>
