<svg width="520" height="520" viewBox="0 0 520 520" fill="none" xmlns="http://www.w3.org/2000/svg">
<g filter="url(#filter0_g_148_130)">
<path d="M453.594 274.561C458.789 279.482 462.822 285.225 465.693 291.787C468.564 298.35 470 305.254 470 312.5C470 319.746 468.633 326.514 465.898 332.803C463.164 339.092 459.404 344.697 454.619 349.619C449.834 354.541 444.297 358.301 438.008 360.898C431.719 363.496 424.883 364.863 417.5 365C414.629 365 411.758 364.795 408.887 364.385L312.295 412.578C312.432 413.398 312.5 414.219 312.5 415.039C312.5 415.859 312.5 416.68 312.5 417.5C312.5 424.746 311.133 431.514 308.398 437.803C305.664 444.092 301.904 449.697 297.119 454.619C292.334 459.541 286.797 463.301 280.508 465.898C274.219 468.496 267.383 469.863 260 470C252.891 470 246.191 468.633 239.902 465.898C233.613 463.164 228.008 459.473 223.086 454.824C218.164 450.176 214.336 444.639 211.602 438.213C208.867 431.787 207.432 425.088 207.295 418.115V415.449C207.295 414.629 207.432 413.672 207.705 412.578L111.113 364.385C108.242 364.795 105.371 365 102.5 365C95.2539 365 88.4863 363.633 82.1973 360.898C75.9082 358.164 70.3027 354.404 65.3809 349.619C60.459 344.834 56.6992 339.297 54.1016 333.008C51.5039 326.719 50.1367 319.883 50 312.5C50 302.793 52.4609 293.838 57.3828 285.635C62.3047 277.432 69.0723 271.006 77.6855 266.357L113.574 134.697C106.191 125.264 102.5 114.531 102.5 102.5C102.5 95.2539 103.867 88.4863 106.602 82.1973C109.336 75.9082 113.096 70.3027 117.881 65.3809C122.666 60.459 128.203 56.6992 134.492 54.1016C140.781 51.5039 147.617 50.1367 155 50C164.434 50 173.184 52.3242 181.25 56.9727C189.316 61.6211 195.742 68.0469 200.527 76.25H319.473C324.258 68.0469 330.684 61.6211 338.75 56.9727C346.816 52.3242 355.566 50 365 50C372.246 50 379.014 51.3672 385.303 54.1016C391.592 56.8359 397.197 60.5957 402.119 65.3809C407.041 70.166 410.801 75.7031 413.398 81.9922C415.996 88.2812 417.363 95.1172 417.5 102.5C417.5 108.242 416.611 113.779 414.834 119.111C413.057 124.443 410.391 129.434 406.836 134.082L453.594 274.561ZM365 312.5C365 304.98 366.504 297.803 369.512 290.967C372.52 284.131 376.895 278.252 382.637 273.33L290.557 204.219L154.59 306.143L155 312.5H365ZM155 155C148.574 155 142.285 153.838 136.133 151.514L106.602 260.205C114.121 260.889 121.162 263.008 127.725 266.562C134.287 270.117 139.893 274.902 144.541 280.918L268.818 187.812L197.041 134.082C191.982 140.645 185.83 145.771 178.584 149.463C171.338 153.154 163.477 155 155 155ZM409.502 260.615C410.596 260.342 411.826 260.205 413.193 260.205C414.561 260.205 415.859 260.137 417.09 260H419.141C419.824 260 420.508 260.068 421.191 260.205L384.893 151.104C378.193 153.701 371.562 155 365 155C362.266 155 359.6 154.795 357.002 154.385L312.5 187.812L409.502 260.615ZM365 76.25C361.309 76.25 357.891 76.9336 354.746 78.3008C351.602 79.668 348.867 81.5137 346.543 83.8379C344.219 86.1621 342.305 88.9648 340.801 92.2461C339.297 95.5273 338.613 98.9453 338.75 102.5C338.75 106.191 339.434 109.609 340.801 112.754C342.168 115.898 344.014 118.633 346.338 120.957C348.662 123.281 351.465 125.195 354.746 126.699C358.027 128.203 361.445 128.887 365 128.75C368.691 128.75 372.109 128.066 375.254 126.699C378.398 125.332 381.133 123.486 383.457 121.162C385.781 118.838 387.695 116.035 389.199 112.754C390.703 109.473 391.387 106.055 391.25 102.5C391.25 98.8086 390.566 95.3906 389.199 92.2461C387.832 89.1016 385.986 86.3672 383.662 84.043C381.338 81.7188 378.535 79.8047 375.254 78.3008C371.973 76.7969 368.555 76.1133 365 76.25ZM312.5 102.5H207.5L207.09 108.857L290.557 171.406L330.137 141.67C324.395 136.748 320.02 130.869 317.012 124.033C314.004 117.197 312.5 110.02 312.5 102.5ZM155 76.25C151.309 76.25 147.891 76.9336 144.746 78.3008C141.602 79.668 138.867 81.5137 136.543 83.8379C134.219 86.1621 132.305 88.9648 130.801 92.2461C129.297 95.5273 128.613 98.9453 128.75 102.5C128.75 106.191 129.434 109.609 130.801 112.754C132.168 115.898 134.014 118.633 136.338 120.957C138.662 123.281 141.465 125.195 144.746 126.699C148.027 128.203 151.445 128.887 155 128.75C158.691 128.75 162.109 128.066 165.254 126.699C168.398 125.332 171.133 123.486 173.457 121.162C175.781 118.838 177.695 116.035 179.199 112.754C180.703 109.473 181.387 106.055 181.25 102.5C181.25 98.8086 180.566 95.3906 179.199 92.2461C177.832 89.1016 175.986 86.3672 173.662 84.043C171.338 81.7188 168.535 79.8047 165.254 78.3008C161.973 76.7969 158.555 76.1133 155 76.25ZM76.25 312.5C76.25 316.191 76.9336 319.609 78.3008 322.754C79.668 325.898 81.5137 328.633 83.8379 330.957C86.1621 333.281 88.9648 335.195 92.2461 336.699C95.5273 338.203 98.9453 338.887 102.5 338.75C106.191 338.75 109.609 338.066 112.754 336.699C115.898 335.332 118.633 333.486 120.957 331.162C123.281 328.838 125.195 326.035 126.699 322.754C128.203 319.473 128.887 316.055 128.75 312.5C128.75 308.809 128.066 305.391 126.699 302.246C125.332 299.102 123.486 296.367 121.162 294.043C118.838 291.719 116.035 289.805 112.754 288.301C109.473 286.797 106.055 286.113 102.5 286.25C98.8086 286.25 95.3906 286.934 92.2461 288.301C89.1016 289.668 86.3672 291.514 84.043 293.838C81.7188 296.162 79.8047 298.965 78.3008 302.246C76.7969 305.527 76.1133 308.945 76.25 312.5ZM260 443.75C263.691 443.75 267.109 443.066 270.254 441.699C273.398 440.332 276.133 438.486 278.457 436.162C280.781 433.838 282.695 431.035 284.199 427.754C285.703 424.473 286.387 421.055 286.25 417.5C286.25 413.809 285.566 410.391 284.199 407.246C282.832 404.102 280.986 401.367 278.662 399.043C276.338 396.719 273.535 394.805 270.254 393.301C266.973 391.797 263.555 391.113 260 391.25C256.309 391.25 252.891 391.934 249.746 393.301C246.602 394.668 243.867 396.514 241.543 398.838C239.219 401.162 237.305 403.965 235.801 407.246C234.297 410.527 233.613 413.945 233.75 417.5C233.75 421.191 234.434 424.609 235.801 427.754C237.168 430.898 239.014 433.633 241.338 435.957C243.662 438.281 246.465 440.195 249.746 441.699C253.027 443.203 256.445 443.887 260 443.75ZM260 365C268.613 365 276.748 366.982 284.404 370.947C292.061 374.912 298.35 380.518 303.271 387.764L380.176 349.414C378.672 347.773 377.236 346.064 375.869 344.287C374.502 342.51 373.203 340.664 371.973 338.75H148.027C146.934 340.664 145.703 342.51 144.336 344.287C142.969 346.064 141.465 347.773 139.824 349.414L216.729 387.764C221.514 380.654 227.734 375.117 235.391 371.152C243.047 367.187 251.25 365.137 260 365ZM417.5 338.75C421.191 338.75 424.609 338.066 427.754 336.699C430.898 335.332 433.633 333.486 435.957 331.162C438.281 328.838 440.195 326.035 441.699 322.754C443.203 319.473 443.887 316.055 443.75 312.5C443.75 307.988 442.656 303.75 440.469 299.785C438.281 295.82 435.273 292.676 431.445 290.352L431.24 290.557L431.035 290.352L431.24 290.146C426.865 287.549 422.285 286.25 417.5 286.25C413.809 286.25 410.391 286.934 407.246 288.301C404.102 289.668 401.367 291.514 399.043 293.838C396.719 296.162 394.805 298.965 393.301 302.246C391.797 305.527 391.113 308.945 391.25 312.5C391.25 316.191 391.934 319.609 393.301 322.754C394.668 325.898 396.514 328.633 398.838 330.957C401.162 333.281 403.965 335.195 407.246 336.699C410.527 338.203 413.945 338.887 417.5 338.75Z" fill="white"/>
</g>
<defs>
<filter id="filter0_g_148_130" x="-40" y="-40" width="600" height="600" filterUnits="userSpaceOnUse" color-interpolation-filters="sRGB">
<feFlood flood-opacity="0" result="BackgroundImageFix"/>
<feBlend mode="normal" in="SourceGraphic" in2="BackgroundImageFix" result="shape"/>
<feTurbulence type="fractalNoise" baseFrequency="0.25 0.25" numOctaves="3" seed="6841" />
<feDisplacementMap in="shape" scale="100" xChannelSelector="R" yChannelSelector="G" result="displacedImage" width="100%" height="100%" />
<feMerge result="effect1_texture_148_130">
<feMergeNode in="displacedImage"/>
</feMerge>
</filter>
</defs>
</svg>
