<svg width="560" height="571" viewBox="0 0 560 571" fill="none" xmlns="http://www.w3.org/2000/svg">
<g clip-path="url(#clip0_105_80)" filter="url(#filter0_g_105_80)">
<path d="M268.455 81.377C285.16 60.431 314.796 60.5992 333.525 76.3151L474.806 194.864C493.536 210.58 498.869 239.754 481.142 259.843C462.447 281.042 444.048 293.676 426.087 300.946C408.205 308.21 391.615 309.741 377.178 309.958C372.176 310.041 367.197 309.924 362.654 309.849L357.382 309.777C352.14 309.595 346.891 309.784 341.675 310.343C333.126 311.367 327.099 313.926 321.741 320.311C316.383 326.696 314.91 333.076 315.407 341.69C315.63 346.266 316.424 351.285 317.539 357.261L318.524 362.44C319.406 366.879 320.385 371.763 321.151 376.686C323.443 390.941 324.796 407.526 320.769 426.417C316.724 445.328 307.477 465.641 289.907 487.748C273.205 508.733 243.509 508.55 224.758 492.816L83.4984 374.286C64.7689 358.57 59.4111 329.338 77.1984 309.264C95.9145 288.083 114.296 275.47 132.239 268.221C150.182 260.971 166.75 259.423 181.169 259.227C186.171 259.144 191.129 259.243 195.672 259.319L200.965 259.408C207.026 259.489 212.107 259.399 216.673 258.842C225.2 257.8 231.249 255.26 236.606 248.874C241.964 242.489 243.416 236.091 242.94 227.495C242.592 222.254 241.872 217.045 240.787 211.906L239.762 206.73C238.815 201.989 237.946 197.233 237.154 192.464C234.861 178.208 233.487 161.605 237.514 142.715C241.556 123.764 250.824 103.469 268.455 81.377ZM315.666 97.5988C307.047 90.3658 295.687 91.7147 290.142 98.6683C274.823 117.876 267.702 134.315 264.662 148.485C261.623 162.654 262.532 175.531 264.532 188.017C265.257 192.47 266.075 196.638 266.9 200.885L268.044 206.741C269.214 212.91 270.298 219.441 270.653 225.977C271.386 239.541 268.923 253.541 257.869 266.716C246.832 279.869 233.475 284.765 219.951 286.402C213.51 287.162 206.89 287.229 200.593 287.168L194.589 287.062C190.263 286.987 186.034 286.884 181.526 286.983C168.901 287.16 156.1 288.497 142.614 293.937C129.205 299.37 114.231 309.219 97.9539 327.623C92.0687 334.291 92.6951 345.734 101.315 352.966L242.596 471.515C251.215 478.748 262.593 477.378 268.138 470.424C283.436 451.199 290.556 434.759 293.578 420.611C296.593 406.385 295.708 393.565 293.709 381.079C292.984 376.626 292.208 372.493 291.362 368.229L290.219 362.373C288.909 356.035 288.044 349.613 287.63 343.154C286.876 329.573 289.36 315.59 300.415 302.416C311.452 289.263 324.83 284.385 338.332 282.73C344.812 281.966 351.433 281.899 357.711 281.981L363.677 282.09C368.024 282.183 372.249 282.248 376.76 282.188C389.404 281.989 402.204 280.652 415.67 275.195C429.078 269.762 444.049 259.873 460.305 241.452C466.19 234.784 465.546 223.362 456.947 216.147L315.666 97.5988Z" fill="white"/>
</g>
<defs>
<filter id="filter0_g_105_80" x="-49.3037" y="-49.4624" width="659.179" height="669.976" filterUnits="userSpaceOnUse" color-interpolation-filters="sRGB">
<feFlood flood-opacity="0" result="BackgroundImageFix"/>
<feBlend mode="normal" in="SourceGraphic" in2="BackgroundImageFix" result="shape"/>
<feTurbulence type="fractalNoise" baseFrequency="0.25 0.25" numOctaves="3" seed="8847" />
<feDisplacementMap in="shape" scale="100" xChannelSelector="R" yChannelSelector="G" result="displacedImage" width="100%" height="100%" />
<feMerge result="effect1_texture_105_80">
<feMergeNode in="displacedImage"/>
</feMerge>
</filter>
<clipPath id="clip0_105_80">
<rect width="356.942" height="444.541" fill="white" transform="translate(286.441 0.537598) rotate(40)"/>
</clipPath>
</defs>
</svg>
