<svg width="1297" height="755" viewBox="0 0 1297 755" fill="none" xmlns="http://www.w3.org/2000/svg">
<path fill-rule="evenodd" clip-rule="evenodd" d="M-0.00141954 755V0L648.465 0V755H-0.00141954ZM647.027 1.43536V107.652L540.627 107.652V1.43536L647.027 1.43536ZM540.627 215.304V109.087L647.027 109.087V215.304H540.627ZM540.627 216.74V322.956H647.027V216.74H540.627ZM540.627 430.608V324.392H647.027V430.608H540.627ZM540.627 432.044V538.26H647.027V432.044H540.627ZM540.627 645.913V539.696H647.027V645.913H540.627ZM540.627 647.348V753.565H647.027V647.348H540.627ZM539.189 645.913V539.696H432.789L432.789 645.913H539.189ZM432.789 753.565V647.348H539.189V753.565H432.789ZM1.43642 645.913H107.837V539.696H1.43642V645.913ZM109.274 647.348V753.565H215.675V647.348H109.274ZM109.274 645.913V539.696H215.675V645.913H109.274ZM107.837 753.565V647.348H1.43642V753.565H107.837ZM107.837 538.26H1.43642V432.044H107.837V538.26ZM109.274 432.044V538.26H215.675V432.044H109.274ZM1.43642 430.608H107.837V324.392H1.43642V430.608ZM109.274 430.608V324.392H215.675L215.675 430.608H109.274ZM107.837 322.956H1.43642V216.74L107.837 216.74V322.956ZM109.274 216.74V322.956H215.675V216.74H109.274ZM1.43642 215.304L107.837 215.304V109.087H1.43642V215.304ZM109.274 215.304V109.087L215.675 109.087V215.304H109.274ZM107.837 107.652H1.43642V1.43536L107.837 1.43536V107.652ZM109.274 1.43536V107.652L215.675 107.652V1.43536L109.274 1.43536ZM323.513 753.565H217.113V647.348H323.513V753.565ZM323.513 645.913H217.113V539.696H323.513V645.913ZM217.113 538.26V432.044L323.513 432.044V538.26H217.113ZM217.113 324.392L217.113 430.608L323.513 430.608L323.513 324.392L217.113 324.392ZM217.113 322.956V216.74H323.513V322.956L217.113 322.956ZM217.113 109.087V215.304H323.513V109.087H217.113ZM217.113 107.652V1.43536L323.513 1.43536V107.652H217.113ZM324.951 647.348V753.565H431.351V647.348H324.951ZM324.951 645.913V539.696H431.351L431.351 645.913H324.951ZM324.951 432.044V538.26H431.351V432.044H324.951ZM324.951 430.608L324.951 324.392H431.351V430.608H324.951ZM324.951 216.74V322.956H431.351V216.74H324.951ZM324.951 215.304V109.087L431.351 109.087V215.304H324.951ZM324.951 1.43536V107.652L431.351 107.652V1.43536L324.951 1.43536ZM432.789 538.26H539.189V432.044H432.789V538.26ZM432.789 324.392V430.608H539.189V324.392H432.789ZM432.789 322.956V216.74L539.189 216.74V322.956H432.789ZM432.789 109.087V215.304L539.189 215.304V109.087H432.789ZM432.789 107.652V1.43536L539.189 1.43536V107.652H432.789Z" fill="url(#paint0_radial_89_289)"/>
<path fill-rule="evenodd" clip-rule="evenodd" d="M648.002 755V0L1296.47 0V755H648.002ZM1295.03 1.43536V107.652L1188.63 107.652V1.43536L1295.03 1.43536ZM1188.63 215.304V109.087L1295.03 109.087V215.304H1188.63ZM1188.63 216.74V322.956H1295.03V216.74H1188.63ZM1188.63 430.608V324.392H1295.03V430.608H1188.63ZM1188.63 432.044V538.26H1295.03V432.044H1188.63ZM1188.63 645.913V539.696H1295.03V645.913H1188.63ZM1188.63 647.348V753.565H1295.03V647.348H1188.63ZM1187.19 645.913V539.696H1080.79V645.913H1187.19ZM1080.79 753.565V647.348H1187.19V753.565H1080.79ZM649.44 645.913H755.841V539.696H649.44V645.913ZM757.278 647.348V753.565H863.679V647.348H757.278ZM757.278 645.913V539.696H863.679V645.913H757.278ZM755.841 753.565V647.348H649.44V753.565H755.841ZM755.841 538.26H649.44V432.044H755.841V538.26ZM757.278 432.044V538.26H863.679V432.044H757.278ZM649.44 430.608H755.841V324.392H649.44V430.608ZM757.278 430.608V324.392H863.679V430.608H757.278ZM755.841 322.956H649.44V216.74L755.841 216.74V322.956ZM757.278 216.74V322.956H863.679V216.74H757.278ZM649.44 215.304L755.841 215.304V109.087H649.44V215.304ZM757.278 215.304V109.087L863.679 109.087V215.304H757.278ZM755.841 107.652H649.44V1.43536L755.841 1.43536V107.652ZM757.278 1.43536V107.652L863.679 107.652V1.43536L757.278 1.43536ZM971.517 753.565H865.116V647.348H971.517V753.565ZM971.517 645.913H865.116V539.696H971.517V645.913ZM865.116 538.26V432.044L971.517 432.044V538.26H865.116ZM865.116 324.392V430.608L971.517 430.608V324.392L865.116 324.392ZM865.116 322.956V216.74H971.517V322.956L865.116 322.956ZM865.116 109.087V215.304H971.517V109.087H865.116ZM865.116 107.652V1.43536L971.517 1.43536V107.652H865.116ZM972.955 647.348V753.565H1079.35V647.348H972.955ZM972.955 645.913V539.696H1079.35V645.913H972.955ZM972.955 432.044V538.26H1079.35V432.044H972.955ZM972.955 430.608V324.392H1079.35V430.608H972.955ZM972.955 216.74V322.956H1079.35V216.74H972.955ZM972.955 215.304V109.087L1079.35 109.087V215.304H972.955ZM972.955 1.43536V107.652L1079.35 107.652V1.43536L972.955 1.43536ZM1080.79 538.26H1187.19V432.044H1080.79V538.26ZM1080.79 324.392V430.608H1187.19V324.392H1080.79ZM1080.79 322.956V216.74L1187.19 216.74V322.956H1080.79ZM1080.79 109.087V215.304L1187.19 215.304V109.087H1080.79ZM1080.79 107.652V1.43536L1187.19 1.43536V107.652H1080.79Z" fill="url(#paint1_radial_89_289)"/>
<defs>
<radialGradient id="paint0_radial_89_289" cx="0" cy="0" r="1" gradientUnits="userSpaceOnUse" gradientTransform="translate(324.232 377.5) rotate(-130.659) scale(497.628 497.682)">
<stop stop-color="white" stop-opacity="0.8"/>
<stop offset="1" stop-color="white" stop-opacity="0"/>
</radialGradient>
<radialGradient id="paint1_radial_89_289" cx="0" cy="0" r="1" gradientUnits="userSpaceOnUse" gradientTransform="translate(972.236 377.5) rotate(-130.659) scale(497.628 497.682)">
<stop stop-color="white" stop-opacity="0.8"/>
<stop offset="1" stop-color="white" stop-opacity="0"/>
</radialGradient>
</defs>
</svg>
