<svg width="716" height="667" viewBox="0 0 716 667" fill="none" xmlns="http://www.w3.org/2000/svg">
<g clip-path="url(#clip0_101_65)" filter="url(#filter0_g_101_65)">
<path d="M134.814 333.641C123.349 346.053 111.097 367.509 105.797 384.097C93.0966 424.656 101.563 469.275 128.316 503.073C165.199 549.667 226.913 565.006 282.68 541.518C291.532 537.847 294.987 535.589 309.932 523.759C324.605 511.986 327.89 508.909 333.474 501.311C341.252 490.864 350.097 473.535 354.054 460.87C357.375 450.614 363.87 402.415 362.771 396.612C361.18 388.179 351.259 380.462 342.618 380.787C337.616 381.092 330.026 385.352 326.696 389.577C325.443 391.204 323.199 403.626 321.115 419.258C317.247 448.695 314.377 458.116 305.003 472.368C299.903 480.378 297.811 482.351 285.112 492.403C272.198 502.784 270.208 503.883 261.046 507.163C233.33 516.709 204.98 513.411 180.195 497.757C172.109 492.559 170.346 490.935 160.063 477.943C149.779 464.952 148.603 462.864 145.401 453.8C140.493 439.571 139.009 425.652 140.853 411.323C142.759 396.468 146.174 386.932 154.257 373.86C160.22 364.533 161.14 363.487 174.62 352.816C187.396 342.862 189.798 341.279 198.764 338.154C219.036 330.846 217.188 330.72 350.231 345.843C429.528 354.892 476.705 359.493 482.875 359.058C495.858 357.997 514.657 353.444 526.883 348.215C535.735 344.544 539.191 342.286 554.136 330.456C571.837 316.286 575.691 312.122 584.971 297.15C613.345 250.698 609.641 191.824 575.697 148.941C538.815 102.347 476.323 86.8292 421.334 110.496C412.657 114.187 408.908 116.677 394.158 128.353C379.408 140.028 376.124 143.105 370.54 150.703C362.761 161.15 353.917 178.479 349.96 191.144C346.638 201.4 340.144 249.599 341.242 255.402C342.833 263.835 352.755 271.552 361.395 271.227C366.397 270.922 373.988 266.662 377.317 262.437C378.571 260.81 380.814 248.388 382.899 232.756C386.767 203.319 389.637 193.898 399.01 179.646C404.111 171.636 406.105 169.74 418.901 159.611C431.6 149.559 434.001 147.976 442.694 144.908C469.808 135.203 498.957 138.506 523.818 154.257C531.905 159.455 533.667 161.079 543.951 174.071C554.234 187.062 555.41 189.15 558.613 198.214C568.236 226.028 564.759 255.156 549.088 279.318C544.029 286.977 541.917 289.126 529.393 299.198C515.913 309.868 514.684 310.523 504.236 314.185C498.156 316.139 489.564 318.332 485.047 319.048C479.011 319.853 443.754 316.461 353.782 306.171C231.688 292.232 222.351 291.678 204.375 295.262C182.385 299.799 172.165 304.552 152.808 319.239C144.35 325.616 136.32 332.131 134.814 333.641Z" fill="white"/>
</g>
<defs>
<filter id="filter0_g_101_65" x="-59.1465" y="-59.6436" width="834.414" height="786.595" filterUnits="userSpaceOnUse" color-interpolation-filters="sRGB">
<feFlood flood-opacity="0" result="BackgroundImageFix"/>
<feBlend mode="normal" in="SourceGraphic" in2="BackgroundImageFix" result="shape"/>
<feTurbulence type="fractalNoise" baseFrequency="0.25 0.25" numOctaves="3" seed="4823" />
<feDisplacementMap in="shape" scale="120" xChannelSelector="R" yChannelSelector="G" result="displacedImage" width="100%" height="100%" />
<feMerge result="effect1_texture_101_65">
<feMergeNode in="displacedImage"/>
</feMerge>
</filter>
<clipPath id="clip0_101_65">
<rect width="637.851" height="345.257" fill="white" transform="translate(0.853516 396.241) rotate(-38.3639)"/>
</clipPath>
</defs>
</svg>
