<svg width="500" height="500" viewBox="0 0 500 500" fill="none" xmlns="http://www.w3.org/2000/svg">
<path d="M377.708 250L403.958 223.75C413.125 214.583 424.792 209.583 437.5 208.333V187.5L312.5 62.5H104.167C81.0417 62.5 62.5 81.0417 62.5 104.167V395.833C62.5 406.884 66.8899 417.482 74.7039 425.296C82.5179 433.11 93.116 437.5 104.167 437.5H229.167V398.542L231.875 395.833H104.167V104.167H250V250H377.708ZM291.667 93.75L406.25 208.333H291.667V93.75ZM398.542 288.125L441.042 330.625L313.333 458.333H270.833V415.833L398.542 288.125ZM476.042 295.625L455.625 316.042L413.125 273.542L433.542 253.125C437.5 248.958 444.375 248.958 448.542 253.125L476.042 280.625C480.208 284.792 480.208 291.667 476.042 295.625Z" fill="white"/>
</svg>
