<svg width="500" height="518" viewBox="0 0 500 518" fill="none" xmlns="http://www.w3.org/2000/svg">
<g filter="url(#filter0_g_148_128)">
<path d="M250.357 419.643C215.216 419.643 181.514 405.683 156.665 380.835C131.817 355.986 117.857 322.284 117.857 287.143C117.857 252.002 131.817 218.3 156.665 193.451C181.514 168.603 215.216 154.643 250.357 154.643C285.498 154.643 319.2 168.603 344.049 193.451C368.897 218.3 382.857 252.002 382.857 287.143C382.857 322.284 368.897 355.986 344.049 380.835C319.2 405.683 285.498 419.643 250.357 419.643ZM383.425 180.954L410.304 154.075C401.786 144.421 393.268 135.714 383.614 127.386L356.736 154.643C327.396 130.793 290.486 116.786 250.357 116.786C205.176 116.786 161.845 134.734 129.896 166.682C97.9483 198.63 80 241.961 80 287.143C80 332.324 97.9483 375.655 129.896 407.604C161.845 439.552 205.176 457.5 250.357 457.5C345 457.5 420.714 381.218 420.714 287.143C420.714 247.014 406.707 210.104 383.425 180.954ZM231.429 306.071H269.286V192.5H231.429M307.143 60H193.571V97.8571H307.143V60Z" fill="white"/>
</g>
<defs>
<filter id="filter0_g_148_128" x="-60" y="-51" width="620" height="620" filterUnits="userSpaceOnUse" color-interpolation-filters="sRGB">
<feFlood flood-opacity="0" result="BackgroundImageFix"/>
<feBlend mode="normal" in="SourceGraphic" in2="BackgroundImageFix" result="shape"/>
<feTurbulence type="fractalNoise" baseFrequency="0.25 0.25" numOctaves="3" seed="5362" />
<feDisplacementMap in="shape" scale="120" xChannelSelector="R" yChannelSelector="G" result="displacedImage" width="100%" height="100%" />
<feMerge result="effect1_texture_148_128">
<feMergeNode in="displacedImage"/>
</feMerge>
</filter>
</defs>
</svg>
