<svg width="401" height="430" viewBox="0 0 401 430" fill="none" xmlns="http://www.w3.org/2000/svg">
<g filter="url(#filter0_g_104_76)">
<path d="M291.277 68.9627L286.328 40.6284L266.851 61.7842L238.382 57.7417L252.469 82.7929L239.852 108.604L268.027 102.932L288.692 122.936L292 94.3692L317.419 80.8942L291.265 68.9382L291.277 68.9627ZM330.159 234.926L327.929 219.613L317.125 230.699L301.873 228.078L309.076 241.761L301.873 255.457L317.125 252.835L327.929 263.934L330.159 248.621L344.038 241.761L330.159 234.926ZM69.2703 105.982L80.8833 101.425L91.2223 108.408L90.4628 95.9494L100.287 88.2687L88.221 85.1327L83.9335 73.4094L77.245 83.9444L64.7868 84.3732L72.7125 94.0017L69.2703 105.982ZM136.89 140.686L149.385 127.26L167.515 129.931L158.622 113.883L166.793 97.4684L148.785 100.972L135.702 88.1339L133.473 106.35L117.205 114.839L133.84 122.581L136.903 140.674L136.89 140.686ZM220.117 167.832C212.914 163.337 205.76 160.274 199.39 158.914C193.363 157.812 186.65 157.077 181.934 163.496L40.3848 389.153H122.215L240.672 200.307C244.372 193.251 240.795 187.567 237.193 182.581C233.212 177.473 227.32 172.353 220.117 167.832ZM175.772 280.728C172.648 275.877 166.707 270.23 158.94 265.367C151.198 260.516 143.53 257.6 137.797 256.914L191.942 170.527C192.738 170.368 195.164 170.282 198.606 171.336C202.844 172.463 208.222 174.827 213.612 178.22C219.786 182.055 224.735 186.514 227.491 190.103C228.565 191.369 229.396 192.823 229.941 194.39L175.772 280.728Z" fill="white"/>
</g>
<defs>
<filter id="filter0_g_104_76" x="-31" y="-28" width="472" height="472" filterUnits="userSpaceOnUse" color-interpolation-filters="sRGB">
<feFlood flood-opacity="0" result="BackgroundImageFix"/>
<feBlend mode="normal" in="SourceGraphic" in2="BackgroundImageFix" result="shape"/>
<feTurbulence type="fractalNoise" baseFrequency="0.25 0.25" numOctaves="3" seed="4629" />
<feDisplacementMap in="shape" scale="80" xChannelSelector="R" yChannelSelector="G" result="displacedImage" width="100%" height="100%" />
<feMerge result="effect1_texture_104_76">
<feMergeNode in="displacedImage"/>
</feMerge>
</filter>
</defs>
</svg>
