<svg width="500" height="500" viewBox="0 0 500 500" fill="none" xmlns="http://www.w3.org/2000/svg">
<g clip-path="url(#clip0_149_145)">
<path d="M426.395 181.125L431.52 169.334C440.531 148.474 457.033 131.749 477.77 122.459L493.583 115.396C495.501 114.514 497.126 113.1 498.265 111.322C499.404 109.544 500.01 107.476 500.01 105.365C500.01 103.253 499.404 101.186 498.265 99.408C497.126 97.63 495.501 96.216 493.583 95.3336L478.645 88.6877C457.387 79.1331 440.602 61.7894 431.749 40.2294L426.479 27.5002C425.704 25.5284 424.354 23.8356 422.604 22.6424C420.853 21.4492 418.784 20.811 416.666 20.811C414.548 20.811 412.478 21.4492 410.728 22.6424C408.978 23.8356 407.628 25.5284 406.853 27.5002L401.583 40.2086C392.739 61.7726 375.962 79.1238 354.708 88.6877L339.749 95.3544C337.837 96.2394 336.217 97.6532 335.083 99.4288C333.948 101.205 333.345 103.268 333.345 105.375C333.345 107.483 333.948 109.546 335.083 111.322C336.217 113.097 337.837 114.511 339.749 115.396L355.583 122.438C376.316 131.737 392.81 148.47 401.812 169.334L406.937 181.125C410.687 189.75 422.624 189.75 426.395 181.125ZM120.833 333.334H165.708L178.208 302.084H238.458L250.958 333.334H295.833L229.166 166.667H187.499L120.833 333.334ZM208.333 226.771L221.791 260.417H194.874L208.333 226.771ZM312.499 333.334V166.667H354.166V333.334H312.499ZM62.4993 62.5002C56.974 62.5002 51.675 64.6952 47.768 68.6022C43.8609 72.5092 41.666 77.8082 41.666 83.3336V416.667C41.666 422.192 43.8609 427.491 47.768 431.398C51.675 435.305 56.974 437.5 62.4993 437.5H437.499C443.025 437.5 448.324 435.305 452.231 431.398C456.138 427.491 458.333 422.192 458.333 416.667V229.167H416.666V395.834H83.3327V104.167H291.666V62.5002H62.4993Z" fill="white"/>
</g>
<defs>
<clipPath id="clip0_149_145">
<rect width="500" height="500" fill="white"/>
</clipPath>
</defs>
</svg>
