<svg width="500" height="500" viewBox="0 0 500 500" fill="none" xmlns="http://www.w3.org/2000/svg">
<path d="M369.021 211L363.896 222.792C363.095 224.712 361.744 226.352 360.012 227.506C358.281 228.659 356.247 229.275 354.167 229.275C352.086 229.275 350.052 228.659 348.321 227.506C346.59 226.352 345.238 224.712 344.438 222.792L339.313 211C330.302 190.14 313.8 173.415 293.063 164.125L277.25 157.063C275.332 156.18 273.707 154.766 272.567 152.988C271.428 151.21 270.823 149.143 270.823 147.031C270.823 144.92 271.428 142.852 272.567 141.074C273.707 139.297 275.332 137.883 277.25 137L292.188 130.354C313.446 120.8 330.23 103.456 339.083 81.8959L344.354 69.1667C345.128 67.1949 346.479 65.5021 348.229 64.3089C349.979 63.1157 352.048 62.4775 354.167 62.4775C356.285 62.4775 358.354 63.1157 360.104 64.3089C361.855 65.5021 363.205 67.1949 363.979 69.1667L369.25 81.8751C378.094 103.439 394.871 120.79 416.125 130.354L431.083 137.021C432.996 137.906 434.615 139.32 435.75 141.095C436.885 142.871 437.488 144.934 437.488 147.042C437.488 149.149 436.885 151.212 435.75 152.988C434.615 154.764 432.996 156.178 431.083 157.063L415.25 164.104C394.517 173.404 378.022 190.136 369.021 211ZM58.9167 250L147.313 338.396L117.854 367.854L0 250L117.854 132.146L147.292 161.604L58.9167 250ZM382.146 367.854L500 250L441.042 191.083L411.583 220.542L441.063 250L352.688 338.396L382.146 367.854Z" fill="white"/>
</svg>
