<svg width="532" height="500" viewBox="0 0 532 500" fill="none" xmlns="http://www.w3.org/2000/svg">
<g filter="url(#filter0_g_148_134)">
<path d="M208.706 106.722C227.097 100.879 246.285 97.9368 265.581 98.001C344.863 98.001 398.818 145.396 430.99 187.18C447.104 208.147 455.161 218.593 455.161 249.666C455.161 280.757 447.104 291.203 430.99 312.151C398.818 353.935 344.863 401.33 265.581 401.33C186.298 401.33 132.343 353.935 100.172 312.151C84.0572 291.222 76 280.738 76 249.666C76 218.574 84.0572 208.128 100.172 187.18C110.001 174.342 120.945 162.396 132.874 151.482" stroke="white" stroke-width="32" stroke-linecap="round"/>
<path d="M322.455 249.665C322.455 264.749 316.463 279.216 305.797 289.882C295.131 300.548 280.665 306.54 265.581 306.54C250.497 306.54 236.031 300.548 225.365 289.882C214.699 279.216 208.707 264.749 208.707 249.665C208.707 234.581 214.699 220.115 225.365 209.449C236.031 198.783 250.497 192.791 265.581 192.791C280.665 192.791 295.131 198.783 305.797 209.449C316.463 220.115 322.455 234.581 322.455 249.665Z" stroke="white" stroke-width="32"/>
</g>
<defs>
<filter id="filter0_g_148_134" x="-44" y="-60" width="620" height="620" filterUnits="userSpaceOnUse" color-interpolation-filters="sRGB">
<feFlood flood-opacity="0" result="BackgroundImageFix"/>
<feBlend mode="normal" in="SourceGraphic" in2="BackgroundImageFix" result="shape"/>
<feTurbulence type="fractalNoise" baseFrequency="0.25 0.25" numOctaves="3" seed="7105" />
<feDisplacementMap in="shape" scale="120" xChannelSelector="R" yChannelSelector="G" result="displacedImage" width="100%" height="100%" />
<feMerge result="effect1_texture_148_134">
<feMergeNode in="displacedImage"/>
</feMerge>
</filter>
</defs>
</svg>
