<svg width="48" height="48" viewBox="0 0 48 48" fill="none" xmlns="http://www.w3.org/2000/svg">
<path d="M23.9985 4.00002C12.9386 4.00002 3.99856 12.94 3.99856 24.0001H3.97857C3.95857 32.6 9.47857 40.24 17.6385 42.9601C18.6385 43.12 18.9985 42.52 18.9985 42.0001C18.9985 41.5201 18.9585 39.94 18.9585 38.26C13.9186 39.1801 12.6346 37.0201 12.2346 35.9C11.9946 35.32 11.0346 33.5401 10.1746 33.0601C9.47457 32.68 8.47457 31.76 10.1346 31.72C11.6946 31.6801 12.8346 33.16 13.1946 33.76C14.9946 36.7801 17.8545 35.92 19.0146 35.4001C19.1745 34.1 19.7145 33.22 20.2746 32.72C15.8145 32.2201 11.1746 30.4801 11.1746 22.84C11.1746 20.66 11.9346 18.866 13.2146 17.4601C13.0146 16.96 12.3146 14.9 13.4146 12.16C13.4146 12.16 15.0746 11.62 18.9146 14.2H18.8946C20.5146 13.74 22.1946 13.52 23.8945 13.52C25.5945 13.52 27.2946 13.74 28.8945 14.18C32.7146 11.58 34.3946 12.132 34.3946 12.132C35.4945 14.882 34.7946 16.9321 34.5945 17.432C35.8545 18.832 36.6345 20.5921 36.6345 22.792C36.6345 30.452 31.9545 32.152 27.4946 32.6521C28.2146 33.272 28.8345 34.472 28.8345 36.352C28.8345 39.0121 28.7946 41.1721 28.7946 41.852C28.7946 42.3721 29.1546 42.992 30.1545 42.7921H30.1346C38.2746 40.0321 43.7546 32.392 43.7546 23.812C43.7546 12.752 34.7946 3.81201 23.7546 3.81201L23.9985 4.00002Z" fill="white"/>
</svg>
