<svg width="48" height="48" viewBox="0 0 48 48" fill="none" xmlns="http://www.w3.org/2000/svg">
<path d="M13.0411 29.0276V29.0077C13.0211 31.1677 11.2611 32.9276 9.1011 32.9276C6.92109 32.9077 5.1611 31.1476 5.1611 28.9876C5.1611 26.8076 6.92109 25.0516 9.08109 25.0516H13.0171V28.9876L13.0411 29.0276ZM15.0212 29.0276C15.0212 26.8477 16.7811 25.0916 18.9411 25.0916C21.1011 25.0916 22.8771 26.8516 22.8771 29.0276V38.8816V38.8616C22.8572 41.0216 21.0971 42.7816 18.9371 42.7816C16.7571 42.7616 14.9971 41.0017 14.9971 38.8417V28.9876L15.0212 29.0276ZM18.9411 13.0396L18.9212 13.0376C16.7411 13.0176 14.9811 11.2576 14.9811 9.09762C14.9811 6.91761 16.7411 5.15761 18.9011 5.15761C21.0611 5.15761 22.8371 6.91761 22.8371 9.07761V13.0196H18.8811L18.9411 13.0396ZM18.9411 15.0196C21.1011 15.0196 22.8771 16.7797 22.8771 18.9397V18.9196C22.8572 21.0796 21.0971 22.8397 18.9371 22.8397H9.0611C6.8811 22.8196 5.12109 21.0596 5.12109 18.8996C5.12109 16.7197 6.8811 14.9596 9.0411 14.9596H18.9011L18.9411 15.0196ZM34.9151 18.9397C34.9151 16.7596 36.6752 14.9996 38.8511 14.9996C41.0111 14.9996 42.7712 16.7596 42.7712 18.9196V18.8996C42.7511 21.0596 40.9911 22.8196 38.8311 22.8196H34.8812V18.8797L34.9151 18.9397ZM32.9151 18.9397V18.9196C32.8952 21.0796 31.1351 22.8397 28.9751 22.8397C26.7951 22.8196 25.0352 21.0596 25.0352 18.8996V9.03961C25.0352 6.85962 26.7951 5.09961 28.9712 5.09961C31.1312 5.09961 32.8911 6.85962 32.8911 9.01962V18.8797L32.9151 18.9397ZM28.9751 34.9136C31.1351 34.9136 32.8952 36.6736 32.8952 38.8496V38.8297C32.8751 40.9897 31.1151 42.7496 28.9551 42.7496C26.7752 42.7297 25.0151 40.9696 25.0151 38.8096V34.8736H28.9511L28.9751 34.9136ZM28.9751 32.9137C26.7951 32.8936 25.0352 31.1336 25.0352 28.9736C25.0352 26.7937 26.7951 25.0376 28.9712 25.0376H38.8251C40.9851 25.0376 42.7451 26.7976 42.7451 28.9736V28.9537C42.7251 31.1137 40.9652 32.8736 38.8052 32.8736H28.9412L28.9751 32.9137Z" fill="white"/>
</svg>
