<svg width="48" height="48" viewBox="0 0 48 48" fill="none" xmlns="http://www.w3.org/2000/svg">
<path d="M40.1327 16.9559C41.1126 18.716 41.2326 20.9759 40.7327 23.6099C39.2526 31.2099 34.1807 33.8499 27.6926 33.8499H26.6927C25.8926 33.8499 25.2126 34.4079 25.0926 35.2079L25.0127 35.648L23.7527 43.628L23.6726 43.9679V43.9479C23.5326 44.7279 22.8726 45.2879 22.0727 45.2879H15.3587L15.3386 45.2859C14.7986 45.266 14.3586 44.846 14.3586 44.306C14.3586 44.246 14.3586 44.186 14.3586 44.1459L14.6986 41.9259H17.7186L19.6187 29.8859H22.3787C31.7186 29.8859 37.8786 25.466 39.9707 16.8659L40.1327 16.9559ZM34.2126 6.77592C35.7326 8.49593 36.1727 10.3959 35.7126 13.3459C35.6726 13.5859 35.6327 13.8259 35.5727 14.0659C34.0926 21.6059 29.3927 24.9459 21.6527 24.9459H17.8586C16.5986 24.9459 15.4986 25.766 15.1506 26.9459L15.1106 26.9259L13.2506 38.706H6.17859C6.11859 38.6859 6.05859 38.6459 6.05859 38.5859C6.05859 38.5659 6.05859 38.5659 6.05859 38.5659L11.2386 5.53992H11.2186C11.3586 4.59992 12.1586 3.91992 13.0786 3.91992H25.0187C29.3846 3.91992 32.4386 4.83992 34.0646 6.69593L34.2126 6.77592Z" fill="white"/>
</svg>
