<svg width="48" height="48" viewBox="0 0 48 48" fill="none" xmlns="http://www.w3.org/2000/svg">
<path d="M19.656 43.5202C10.7019 41.5201 4.00195 33.5401 4.00195 23.9801C4.00195 20.3201 4.96195 16.9201 6.66195 13.9761L15.222 28.7962L15.2019 28.7761C17.1619 32.3362 21.102 34.3561 25.1419 33.8561L19.602 43.4201L19.656 43.5202ZM24.0019 43.9801L32.562 29.1202V29.1001C33.4819 27.5401 33.9819 25.7602 33.9819 23.9401V23.9201C33.9819 21.7402 33.282 19.6402 31.962 17.9201H43.0459C43.626 19.8001 43.9459 21.8302 43.9459 23.9201C43.9459 34.9661 34.992 43.9201 23.946 43.9201L24.0019 43.9801ZM29.142 27.0601V27.0401C27.4219 29.8801 23.742 30.8002 20.9019 29.0801C20.022 28.5401 19.2819 27.8002 18.7819 26.9201L18.7219 26.8201C17.1019 23.9002 18.162 20.2601 21.0619 18.6601C23.9619 17.0401 27.6019 18.1001 29.202 21.0001C30.2019 22.8401 30.1819 25.0601 29.142 26.8801L29.082 26.9602L29.142 27.0601ZM9.26196 10.4401H9.24195C13.0219 6.30009 18.3619 3.94009 23.9619 3.96009H23.9419C31.0819 3.94009 37.6819 7.76008 41.262 13.9401H23.922C19.902 13.9201 16.2819 16.3201 14.722 20.0002L9.18195 10.4001L9.26196 10.4401Z" fill="white"/>
</svg>
