<svg width="48" height="48" viewBox="0 0 48 48" fill="none" xmlns="http://www.w3.org/2000/svg">
<path d="M20.1504 21.9999C21.3504 21.9999 22.3104 22.8999 22.2905 23.9999C22.2905 25.1 21.3305 26 20.1305 26C18.9504 26 17.9705 25.1 17.9705 23.9999C17.9705 22.8999 18.9104 21.9999 20.1104 21.9999H20.1504ZM27.8304 21.9999C29.0304 21.9999 29.9705 22.8999 29.9705 23.9999C29.9705 25.1 29.0105 26 27.8105 26C26.6304 26 25.6505 25.1 25.6505 23.9999C25.6505 22.8999 26.5904 21.9999 27.7904 21.9999H27.8304ZM37.7504 3.99992C40.0704 3.99992 41.9504 5.91992 41.9504 8.31992V45.9939L37.5104 41.9939L35.0105 39.6339L32.3705 37.1339L33.4505 41.0139H10.1184C7.77839 41.012 5.90039 39.074 5.90039 36.674V8.25992C5.90039 5.85992 7.7804 3.91992 10.1184 3.91992H37.6784L37.7504 3.99992ZM29.8104 31.4259C34.3505 31.2659 36.0905 28.2339 36.0905 28.2339C36.0905 21.4539 33.1104 15.974 33.1104 15.974C30.1505 13.7079 27.3305 13.7539 27.3305 13.7539L27.0305 14.0739C30.5105 15.1539 32.1504 16.7339 32.1504 16.7339C30.2304 15.6539 28.1304 14.9539 25.9505 14.7139C24.5504 14.5539 23.1704 14.5539 21.7904 14.7339C21.6504 14.7339 21.5504 14.7539 21.4304 14.7739C20.7104 14.8339 18.9504 15.0939 16.7504 16.094C15.9905 16.4339 15.5304 16.694 15.5304 16.694C15.5304 16.694 17.2304 15.0339 20.9304 13.9339L20.7104 13.6739C20.7104 13.6739 17.8904 13.5939 14.9304 15.8739C14.9304 15.8739 11.9504 21.3539 11.9504 28.1159C11.9504 28.1159 13.6704 31.1559 18.2105 31.3079C18.2105 31.3079 18.9704 30.3479 19.5905 29.5479C16.9704 28.748 15.9905 27.068 15.9905 27.068C15.9905 27.068 16.1904 27.2079 16.5504 27.4079C16.5704 27.428 16.5905 27.4479 16.6304 27.4679C16.6904 27.5079 16.7504 27.5279 16.8104 27.5679C17.3105 27.848 17.8304 28.088 18.3104 28.268C19.1504 28.5879 20.1504 28.928 21.3365 29.168L21.3164 29.1479C23.0564 29.4879 24.8765 29.4879 26.6364 29.168V29.1479C27.6564 28.9479 28.6565 28.6479 29.6165 28.2279C30.3365 27.9479 31.1364 27.548 31.9764 26.9879C31.9764 26.9879 30.9365 28.7079 28.2524 29.4879C28.8524 30.2679 29.6124 31.1879 29.6124 31.1879L29.8104 31.4259Z" fill="white"/>
</svg>
