<svg width="48" height="48" viewBox="0 0 48 48" fill="none" xmlns="http://www.w3.org/2000/svg">
<path d="M43.9917 36.4599C43.9917 37.8999 43.1718 40.7 41.3637 42.24C40.9838 42.5199 40.6238 42.36 40.7838 41.94C41.3037 40.64 42.5238 37.64 41.9438 36.9399C41.5437 36.3999 39.8838 36.44 38.4638 36.56C37.8038 36.6399 37.2438 36.68 36.8037 36.7599C36.3837 36.78 36.3038 36.42 36.7038 36.14C37.2237 35.76 37.7838 35.48 38.4438 35.28C40.7438 34.58 43.4037 35 43.7838 35.4399C43.8438 35.52 43.9437 35.76 43.9437 36.36L43.9917 36.4599ZM40.1318 39.0399H40.1118C39.5718 39.44 39.0117 39.8 38.4518 40.1199C34.2078 42.66 28.7118 44 23.9318 44C16.2458 44 9.37175 41.16 4.15575 36.42C3.69575 36.0399 4.07576 35.52 4.59575 35.7999C10.2158 39.08 17.1558 41.06 24.3738 41.06C28.8938 41.06 33.7737 40.2 38.4438 38.3799C38.7638 38.24 39.1238 38.0799 39.4437 37.9599C40.1637 37.62 40.8237 38.4399 40.0838 38.96L40.1318 39.0399ZM27.7797 16.98C27.7797 14.8799 27.8598 13.6719 27.1598 12.6199C26.5398 11.7399 25.4798 11.2199 24.0198 11.2999C22.4238 11.3799 20.6997 12.4199 20.2598 14.3399C20.1597 14.7799 19.8998 15.2 19.3797 15.3L14.5197 14.6799C14.1597 14.5999 13.6398 14.3199 13.7997 13.6199C14.8398 8.09994 19.5398 6.17994 23.9798 5.93994H25.0197C27.4598 5.93994 30.5798 6.61994 32.5998 8.45994C35.0198 10.7199 34.7598 13.7839 34.7598 17.1V24.9399C34.7598 27.2799 35.6997 28.34 36.6597 29.568C36.9198 29.988 36.9998 30.5079 36.5598 30.8679C35.5998 31.728 33.7598 33.288 32.7198 34.1679C32.3598 34.428 31.7397 34.448 31.4997 34.248C29.9598 32.948 29.5797 32.228 28.6197 30.9279C26.9598 32.6679 25.5597 33.6279 23.8998 34.148H23.8797C22.6998 34.428 21.4998 34.5879 20.2998 34.568C16.1198 34.568 12.7998 31.9479 12.7998 26.808C12.7998 22.7079 14.9798 19.9239 18.1998 18.588C21.4197 17.268 26.0997 16.848 27.5997 16.8279L27.7797 16.98ZM26.8197 27.36C27.8598 25.5999 27.7598 24.18 27.7598 20.9799C26.4398 20.9799 25.1397 21.06 23.9997 21.32C21.9098 21.92 20.2398 23.24 20.2398 26.0199C20.2398 28.2 21.3597 29.6799 23.2797 29.6799C23.5398 29.6799 23.7597 29.64 23.9598 29.58C25.2998 29.1999 26.1198 28.52 26.7398 27.3L26.8197 27.36Z" fill="white"/>
</svg>
