<svg width="48" height="48" viewBox="0 0 48 48" fill="none" xmlns="http://www.w3.org/2000/svg">
<g clip-path="url(#clip0_91_124)">
<path d="M0.70332 0.253123C0.79707 0.403123 4.90332 6.375 9.8252 13.5469C14.7471 20.7187 18.7783 26.625 18.7783 26.6719C18.7783 26.7281 14.7377 31.4719 9.7877 37.2281C4.84707 42.975 0.74082 47.7562 0.66582 47.8406C0.543945 47.9906 0.675195 48 2.59707 48H4.65957L12.6189 38.7469C16.9971 33.6656 20.6252 29.4844 20.6721 29.475C20.7283 29.4562 23.6346 33.6187 27.1314 38.7187L33.4971 48H40.4721C47.0814 48 47.4377 47.9906 47.3533 47.8312C47.3064 47.7469 43.0408 41.5312 37.8846 34.0312C32.7283 26.5312 28.5002 20.3719 28.5002 20.3437C28.5002 20.3062 32.4189 15.7312 37.2096 10.1719L45.9096 0.0468731L43.8939 0.0187481C42.2346 -1.90735e-06 41.8502 0.0187481 41.7283 0.131248C41.6439 0.206248 38.2221 4.17187 34.1252 8.93437C30.0283 13.7062 26.6439 17.5875 26.6064 17.5687C26.5689 17.5406 23.8314 13.5844 20.5221 8.76562L14.5033 -1.90735e-06H7.51895H0.543945L0.70332 0.253123ZM27.0939 23.9625C35.1096 35.4375 41.6908 44.8594 41.7002 44.9156C41.7283 44.9719 40.5939 44.9906 38.5689 44.9812L35.4002 44.9531L20.7939 24.0656C12.7596 12.5719 6.1877 3.15 6.1877 3.13125C6.1877 3.1125 7.6127 3.09375 9.35645 3.09375L12.5158 3.10312L27.0939 23.9625Z" fill="white"/>
</g>
<defs>
<clipPath id="clip0_91_124">
<rect width="48" height="48" fill="white"/>
</clipPath>
</defs>
</svg>
