<svg width="755" height="648" viewBox="0 0 755 648" fill="none" xmlns="http://www.w3.org/2000/svg">
<path fill-rule="evenodd" clip-rule="evenodd" d="M755 648H0V0H755V648ZM1.43536 1.43681H107.652V107.761H1.43536V1.43681ZM215.304 107.761H109.087V1.43681H215.304V107.761ZM216.74 107.761H322.956V1.43681H216.74V107.761ZM430.608 107.761H324.392V1.43681H430.608V107.761ZM432.044 107.761H538.26V1.43681H432.044V107.761ZM645.913 107.761H539.696V1.43681H645.913V107.761ZM647.348 107.761H753.565V1.43681H647.348V107.761ZM645.913 109.197H539.696V215.521H645.913V109.197ZM753.565 215.521H647.348V109.197H753.565V215.521ZM645.913 646.563V540.239H539.696V646.563H645.913ZM647.348 538.803H753.565V432.479H647.348V538.803ZM645.913 538.803H539.696V432.479H645.913V538.803ZM753.565 540.239H647.348V646.563H753.565V540.239ZM538.26 540.239V646.563H432.044V540.239H538.26ZM432.044 538.803H538.26V432.479H432.044V538.803ZM430.608 646.563V540.239H324.392V646.563H430.608ZM430.608 538.803H324.392V432.479H430.608V538.803ZM322.956 540.239V646.563H216.74V540.239H322.956ZM216.74 538.803H322.956V432.479H216.74V538.803ZM215.304 646.563V540.239H109.087V646.563H215.304ZM215.304 538.803H109.087V432.479H215.304V538.803ZM107.652 540.239V646.563H1.43536V540.239H107.652ZM1.43536 538.803H107.652V432.479H1.43536V538.803ZM753.565 324.718V431.042H647.348V324.718H753.565ZM645.913 324.718V431.042H539.696V324.718H645.913ZM538.26 431.042H432.044V324.718H538.26V431.042ZM324.392 431.042H430.608V324.718H324.392V431.042ZM322.956 431.042H216.74V324.718H322.956V431.042ZM109.087 431.042H215.304V324.718H109.087V431.042ZM107.652 431.042H1.43536V324.718H107.652V431.042ZM647.348 323.282H753.565V216.958H647.348V323.282ZM645.913 323.282H539.696V216.958H645.913V323.282ZM432.044 323.282H538.26V216.958H432.044V323.282ZM430.608 323.282H324.392V216.958H430.608V323.282ZM216.74 323.282H322.956V216.958H216.74V323.282ZM215.304 323.282H109.087V216.958H215.304V323.282ZM1.43536 323.282H107.652V216.958H1.43536V323.282ZM538.26 215.521V109.197H432.044V215.521H538.26ZM324.392 215.521H430.608V109.197H324.392V215.521ZM322.956 215.521H216.74V109.197H322.956V215.521ZM109.087 215.521H215.304V109.197H109.087V215.521ZM107.652 215.521H1.43536V109.197H107.652V215.521Z" fill="url(#paint0_linear_63_54)" fill-opacity="0.2"/>
<defs>
<linearGradient id="paint0_linear_63_54" x1="755" y1="2.25008e-05" x2="-8.0791e-05" y2="648" gradientUnits="userSpaceOnUse">
<stop stop-color="white" stop-opacity="0"/>
<stop offset="1" stop-color="white" stop-opacity="0.8"/>
</linearGradient>
</defs>
</svg>
