<svg width="649" height="755" viewBox="0 0 649 755" fill="none" xmlns="http://www.w3.org/2000/svg">
<path fill-rule="evenodd" clip-rule="evenodd" d="M-0.000427246 755V0L648.466 0V755H-0.000427246ZM647.028 1.43536V107.652L540.628 107.652V1.43536L647.028 1.43536ZM540.628 215.304V109.087L647.028 109.087V215.304H540.628ZM540.628 216.74V322.956H647.028V216.74H540.628ZM540.628 430.608V324.392H647.028V430.608H540.628ZM540.628 432.044V538.26H647.028V432.044H540.628ZM540.628 645.913V539.696H647.028V645.913H540.628ZM540.628 647.348V753.565H647.028V647.348H540.628ZM539.19 645.913V539.696H432.79L432.79 645.913H539.19ZM432.79 753.565V647.348H539.19V753.565H432.79ZM1.43738 645.913H107.838V539.696H1.43738V645.913ZM109.275 647.348V753.565H215.676V647.348H109.275ZM109.275 645.913V539.696H215.676V645.913H109.275ZM107.838 753.565V647.348H1.43738V753.565H107.838ZM107.838 538.26H1.43738V432.044H107.838V538.26ZM109.275 432.044V538.26H215.676V432.044H109.275ZM1.43738 430.608H107.838V324.392H1.43738V430.608ZM109.275 430.608V324.392H215.676L215.676 430.608H109.275ZM107.838 322.956H1.43738V216.74L107.838 216.74V322.956ZM109.275 216.74V322.956H215.676V216.74H109.275ZM1.43738 215.304L107.838 215.304V109.087H1.43738V215.304ZM109.275 215.304V109.087L215.676 109.087V215.304H109.275ZM107.838 107.652H1.43738V1.43536L107.838 1.43536V107.652ZM109.275 1.43536V107.652L215.676 107.652V1.43536L109.275 1.43536ZM323.514 753.565H217.114V647.348H323.514V753.565ZM323.514 645.913H217.114V539.696H323.514V645.913ZM217.114 538.26V432.044L323.514 432.044V538.26H217.114ZM217.114 324.392L217.114 430.608L323.514 430.608L323.514 324.392L217.114 324.392ZM217.114 322.956V216.74H323.514V322.956L217.114 322.956ZM217.114 109.087V215.304H323.514V109.087H217.114ZM217.114 107.652V1.43536L323.514 1.43536V107.652H217.114ZM324.952 647.348V753.565H431.352V647.348H324.952ZM324.952 645.913V539.696H431.352L431.352 645.913H324.952ZM324.952 432.044V538.26H431.352V432.044H324.952ZM324.952 430.608L324.952 324.392H431.352V430.608H324.952ZM324.952 216.74V322.956H431.352V216.74H324.952ZM324.952 215.304V109.087L431.352 109.087V215.304H324.952ZM324.952 1.43536V107.652L431.352 107.652V1.43536L324.952 1.43536ZM432.79 538.26H539.19V432.044H432.79V538.26ZM432.79 324.392V430.608H539.19V324.392H432.79ZM432.79 322.956V216.74L539.19 216.74V322.956H432.79ZM432.79 109.087V215.304L539.19 215.304V109.087H432.79ZM432.79 107.652V1.43536L539.19 1.43536V107.652H432.79Z" fill="url(#paint0_linear_67_66)" fill-opacity="0.2"/>
<defs>
<linearGradient id="paint0_linear_67_66" x1="648.466" y1="755" x2="0.536755" y2="-0.46072" gradientUnits="userSpaceOnUse">
<stop stop-color="white" stop-opacity="0"/>
<stop offset="1" stop-color="white" stop-opacity="0.8"/>
</linearGradient>
</defs>
</svg>
